<svg version="1.2" xmlns="http://www.w3.org/2000/svg" viewBox="0 0 528 312" width="528" height="312">
	<title>Screenshot_2025-09-21_at_06</title>
	<style>
		.s0 { opacity: 1;fill: #637a9c } 
		.s1 { opacity: 1;fill: #2b3b53 } 
		.s2 { opacity: 1;fill: #101d33 } 
		.s3 { opacity: 1;fill: #3b5575 } 
		.s4 { opacity: 1;fill: #0c172b } 
		.s5 { opacity: .99;fill: #1e2e46 } 
		.s6 { opacity: 1;fill: #4b6282 } 
		.s7 { opacity: 1;fill: #f49b0e } 
		.s8 { opacity: .15;fill: #283f5a } 
		.s9 { opacity: 1;fill: #072241 } 
		.s10 { opacity: 1;fill: #0c3152 } 
		.s11 { opacity: 1;fill: #98fcfd } 
	</style>
	<g id="Background">
		<path id="Path 0" class="s0" d="m101 99l3-21 10-21 13-14 24-13 34-6h140l33 7 23 14 19 27 5 27-1 92-9 27-14 18-15 2-7-6-25 1-6 6v8h-152l-20-4-12-6h-8l-4 4-19-19-11-31-1-49zm175 175l6-5 2-10h1l2 1 6 2 6 11v10l-5 13-7 8-3-1-17-18-3-5zm-63-12l8-2 4 11 4 5 13 5-4 5-13 13-7 5-8-10-4-20 2-8z"/>
		<path id="Path 1" class="s1" d="m90 101l11-2v43h-10zm1 87l-7-2-11-10-6-12-2-15 15 10 11 1zm325-28l24-6-2 12-12 19-7 1-3-3zm-392 102l-8-12-1-19 6-14 17-13 17-2 17 6 10 10 5 17-19 16-37 7zm459 19l30 6 4 7-3 16h-126l7-31 6-9 30 3-1 10 3 3 35 6 10-1zm-189 15l5-13v-10l18 6 8 9 1 8-12-3zm-116 0l2-8 8-9 10-5h8l4 20-15-4zm-134-8l15-2 9 8h4l3-8h7l9 5 6 19h-66l3-10zm218 17l-3-7 4-3 3 2z"/>
		<path id="Path 2" class="s2" d="m328 247v-8l6-6 25-1 7 6v12l-10 5-20 1zm-163 45l9-15 10-8 29-7-5 4-2 8h-8l-10 5-8 9-2 8-2 14h-11zm134-19l-6-11 29 8 10 9 8 13v18h-11l-3-14-1-8-8-9zm-74-2l49-1 2 4-12 6-22 1-13-5zm-184 5l30-4 4 14-3 8h-4l-9-8-15 2z"/>
		<path id="Path 3" class="s3" d="m65 149v-15l5-16 11-13 9-4 1 41v18l-11-1zm351 11v-59l9 4 12 15 4 15-1 19zm15 113l3-9 6-4 24 3 17 4 3 5-1 9-5 10-10 1-35-6-3-3zm-253 23l17-6 15 4 8 10 7-5 12-1 6 6-1 6h-66zm-26 8l13-12v18h-13zm188 6v-18l9 10 2 8zm-46-14l20-3 12 3 3 14h-66l-1-5 4-8h7l7 7 4-1 3 1z"/>
		<path id="Path 4" class="s4" d="m221 260v-2l63 1-2 10-6 5-2-4-49 1z"/>
		<path id="Path 5" class="s5" d="m404 191l1-92 11 2v59 23l3 3 7-1v25l-12 24-20 12-28 4v-12l15-2 17-4 12-11 5-12 1-20zm-313-31v-18h10l1 49-11-3zm-67 102l7-4 37-7 19-16-1 17-5 9-10 7v4l-30 4zm239 33l4-10 17 18-4 1-7-7h-7zm-38 4l13-13v4l7 8-2 6-6-6zm126 11l-2-8 7 6zm-199 0h-6l6-6z"/>
		<path id="Path 6" class="s6" d="m132 241l4-4h8l12 6 20 4h152l8 9-13 2h-23-11l-4 1h-1l-63-1h-17-16l-29-3z"/>
		<path id="Path 7" class="s7" d="m242 281l22-1 3 5-4 10-4 3 3 7 1 5h-21l1-6 2-6-7-8v-4z"/>
		<path id="Path 8" class="s8" d="m285 259l4-1-2 2z"/>
		<path id="Path 9" class="s2" d="m161 57h185l17 6 12 11 8 18v98l-8 20-12 11-16 6h-187l-17-6-11-10-8-18-1-96 9-24 11-10z"/>
		<path id="Path 10" class="s9" d="m161 70h175l24 6 8 10 2 8 1 90-3 15-13 13-9 4h-176l-19-4-11-11-4-10v-99l9-15z"/>
		<path id="Path 11" class="s10" d="m189 100l23 2 11 7 16 20 1 11-9 29-17 17-6 3-21 1-10-5-15-14v-5l-6-7-1-25 6-15 11-12zm112 0h18l18 12 9 10 6 16v11l-3 3-1 13-12 11-2 6-10 4-2 4-27-2-19-19-3-15-3-2v-13l2-14 6-8z"/>
		<path id="Path 12" class="s11" d="m184 112h23l2 14 14 1v38l-14 1-1 13h-25l-1-13-14-2v-37l14-1zm115 0h23l2 14 14 1v38l-14 1-1 13h-25l-1-13-14-2v-37l14-1z"/>
	</g>
</svg>