<svg version="1.2" xmlns="http://www.w3.org/2000/svg" viewBox="0 0 512 512" width="512" height="512">
	<title>AVA Robot Icon</title>
	<style>
		.s0 { opacity: 1;fill: #637a9c } 
		.s1 { opacity: 1;fill: #2b3b53 } 
		.s2 { opacity: 1;fill: #101d33 } 
		.s3 { opacity: 1;fill: #3b5575 } 
		.s4 { opacity: 1;fill: #0c172b } 
		.s5 { opacity: .99;fill: #1e2e46 } 
		.s6 { opacity: 1;fill: #4b6282 } 
		.s7 { opacity: 1;fill: #f49b0e } 
		.s8 { opacity: .15;fill: #283f5a } 
		.s9 { opacity: 1;fill: #072241 } 
		.s10 { opacity: 1;fill: #0c3152 } 
		.s11 { opacity: 1;fill: #98fcfd } 
	</style>
	<g id="Background">
		<path id="Path 0" class="s0" d="m98 163l3-35 10-35 13-23 24-22 34-10h140l33 12 23 23 19 45 5 45-1 153-9 45-14 30-15 3-7-10-25 2-6 10v13h-152l-20-7-12-10h-8l-4 7-19-32-11-52-1-82zm175 292l6-8 2-17h1l2 2 6 3 6 18v17l-5 22-7 13-3-2-17-30-3-8zm-63-20l8-3 4 18 4 8 13 8-4 8-13 22-7 8-8-17-4-33 2-13z"/>
		<path id="Path 1" class="s1" d="m90 165l11-3v72h-10zm1 145l-7-3-11-17-6-20-2-25 15 17 11 2zm325-47l24-10-2 20-12 32-7 2-3-5zm-392 170l-8-20-1-32 6-23 17-22 17-3 17 10 10 17 5 28-19 27-37 12zm459 32l30 10 4 12-3 27h-126l7-52 6-15 30 5-1 17 3 5 35 10 10-2zm-189 25l5-22v-17l18 10 8 15 1 13-12-5zm-116 0l2-13 8-15 10-8h8l4 33-15-7zm-134-13l15-3 9 13h4l3-13h7l9 8 6 32h-66l3-17z"/>
		<path id="Path 2" class="s2" d="m328 412v-13l6-10 25-2 7 10v20l-10 8-20 2zm-163 75l9-25 10-13 29-12-5 7-2 13h-8l-10 8-8 15-2 13-2 23h-11zm134-32l-6-18 29 13 10 15 8 22v30h-11l-3-23-1-13-8-15zm-74-3l49-2 2 7-12 10-22 2-13-8zm-184 8l30-7 4 23-3 13h-4l-9-13-15 3z"/>
		<path id="Path 3" class="s3" d="m65 248v-25l5-27 11-22 9-7 1 68v30l-11-2zm351 18v-98l9 7 12 25 4 25-1 32zm15 188l3-15 6-7 24 5 17 7 3 8-1 15-5 17-10 2-35-10-3-5zm-253 38l17-10 15 7 8 17 7-8 12-2 6 10-1 10h-66zm-26 13l13-20v30h-13zm188 10v-30l9 17 2 13zm-46-23l20-5 12 5 3 23h-66l-1-8 4-13h7l7 12 4-2 3 2z"/>
		<path id="Path 4" class="s4" d="m221 433v-3l63 2-2 17-6 8-2-7-49 2z"/>
		<path id="Path 5" class="s5" d="m404 318l1-153 11 3v98 38l3 5 7-2v42l-12 40-20 20-28 7v-20l15-3 17-7 12-18 5-38 1-33zm-313-52v-30h10l1 82-11-5zm-67 170l7-7 37-12 19-27-1 28-5 15-10 12v7l-30 7zm239 55l4-17 17 30-4 2-7-12h-7zm-38 7l13-22v7l7 13-2 10-6-10zm126 18l-2-13 7 10zm-199 0h-6l6-10z"/>
		<path id="Path 6" class="s6" d="m132 402l4-7h8l12 10 20 7h152l8 15-13 3h-23-11l-4 2h-1l-63-2h-17-16l-29-5z"/>
		<path id="Path 7" class="s7" d="m242 468l22-2 3 8-4 17-4 5 3 12 1 8h-21l1-10 2-10-7-13v-7z"/>
		<path id="Path 8" class="s8" d="m285 432l4-2-2 3z"/>
		<path id="Path 9" class="s2" d="m161 95h185l17 10 12 18 8 30v163l-8 33-12 18-16 10h-187l-17-10-11-17-8-30-1-160 9-40 11-17z"/>
		<path id="Path 10" class="s9" d="m161 117h175l24 10 8 17 2 13 1 150-3 25-13 22-9 7h-176l-19-7-11-18-4-17v-165l9-25z"/>
		<path id="Path 11" class="s10" d="m189 167l23 3 11 12 16 33 1 18-9 48-17 28-6 5-21 2-10-8-15-23v-15l-6-12-1-42 6-25 11-20zm112 0h18l18 20 9 17 6 27v18l-3 5-1 22-12 18-2 10-10 7-2 7-27-3-19-32-3-25-3-3v-22l2-23 6-13z"/>
		<path id="Path 12" class="s11" d="m184 187h23l2 23 14 2v63l-14 2-1 22h-25l-1-22-14-3v-62l14-2zm115 0h23l2 23 14 2v63l-14 2-1 22h-25l-1-22-14-3v-62l14-2z"/>
	</g>
</svg>
